<svg id="Layer_1" data-name="Layer 1" xmlns="http://www.w3.org/2000/svg" xmlns:xlink="http://www.w3.org/1999/xlink" viewBox="0 0 417.094 344.155"><defs><style>.cls-1,.cls-3{fill:none;}.cls-2{clip-path:url(#clip-path);}.cls-3{stroke:#231f20;}</style><clipPath id="clip-path" transform="translate(-21.569 55.364)"><rect class="cls-1" width="292" height="288"/></clipPath></defs><g class="cls-2"><path class="cls-3" d="M438.327,261.083c-25.773-23.479-42.784-35.578-49.006-14.366-2.657,9.059-16.03-1.77-29.87-7.545s-28.61-115.3-40.881-126.478-34.827-23.137-44.634-25.309-9.957-3.92-30.4-20.665-17.32-21.073-29.307-31.142-22.821-6.5-25.693-6.445-3.436,7.05-8.155,8.045-21.42-14.1-23.57-14.491-3.9,6.673-8.921,6.556S140.1,16.54,134.6,10.886,108.733-4.689,129.665-39.44s61.152,11.352,67.8,15.639-3.521,18.869,7.1,25.743,16.392-3.674,33.748,3.723,2.674,37.142-20.637,63.739-40.852,75.661-27.745,84.783,62.386,3.218,82.731,7.082c13.477,2.557,26.24,12.414,39.941,25.273,9.919,9.034,21.462,21.466,26.569,34,5.617,13.779-1.962,26.458,1.717,39.858,9.328,33.959,66.117,37.722,81.7,6.8,8.551-16.967-76.157-83.33-114.263-112.995-15.18-11.815-33.1-12.954-32.928-15.945,1.849-32.391-19.517-35.488-19.517-35.488-28.137,3.167-29.658,20.625-79.917,16.02-16.819-1.543-30.506-17.149-35.389-14.9s-6.711,9.994,7.073,5.963S164.237,72.4,163.389,68.631s-23.319.434-27.543-1.98-1.307-7.032-7.374-6.042-10.037,8.306-19.988,11.043S87.176,82.477,90.771,100.72c-2.105,3.3,1.416,29.747,28.549,30.888S259.584,237.55,255.711,253.78s-24.019-39.668-48.315-62.25-89.67-30.946-119.164-52.48-.87-77.6,6.329-75.884-1.184,19.1-3.791,37.554C88.859,114.251,26.976,138.163,34,90.622S68.284,37.349,57.65,3.662c-6.816-21.607-31.292-5.2-35.251,10.23C17.464,33.128,69.463-.145,75.141-13.758s-6.253-35.57-12.978-41.223" transform="translate(-21.569 55.364)"/></g></svg>