<svg width="259" height="281" viewBox="0 0 259 281" fill="none" xmlns="http://www.w3.org/2000/svg">
<g clip-path="url(#clip0)">
<path d="M-2.12874 214.808C5.1366 207.556 24.6315 199.949 38.5765 203.143C57.8982 207.571 190.75 278.834 105.797 261.386C70.9968 254.238 51.6556 234.067 27.4069 207.678C-2.68032 174.94 -21.903 132.773 -41.8309 93.8595C-46.0579 85.5958 -50.0859 77.019 -51.1798 68.2545C-51.4005 66.4621 -51.4231 64.467 -50.188 63.384C-49.023 62.3624 -47.1363 62.5124 -45.4455 62.8652C-33.5964 65.3386 -23.5526 74.8654 -14.9191 84.261C24.6387 127.284 44.9924 174.197 96.3601 204.573C109.895 212.578 125.704 218.559 139.28 214.981C151.774 211.679 159.864 201.004 166.312 190.237C172.76 179.471 178.602 167.762 188.96 160.734C199.318 153.707 215.959 153.093 226.275 163.47C231.247 168.47 233.994 175.273 234.724 181.805C235.961 192.83 231.569 203.434 223.311 209.358C210.154 218.801 190.364 215.7 173.038 209.763C136.863 197.367 114.053 182.676 84.3109 156.573C70.403 144.368 56.9332 131.183 47.2151 115.637C37.4971 100.092 31.8112 81.8065 34.8114 65.5943C37.5847 50.6245 57.8023 30.8342 50.5246 14.6428C43.784 -0.364732 20.3735 -6.55773 6.98206 -6.20398C-10.1271 -5.74741 -11.9354 6.66029 -4.98662 21.7424C13.6226 62.1322 44.1573 132.982 97.6467 128.421C112.947 127.119 125.296 117.75 134.98 107.556C146.805 95.0615 159.379 83.1776 172.644 71.959C189.183 58.0195 206.633 45.0118 224.896 33.0077C231.884 28.4193 273.551 10.6204 270.053 -0.50718C268.764 -4.60692 263.318 -5.50686 259.163 -6.07947C237.931 -9.00381 219.697 -28.9837 217.743 -49.9144C216.837 -59.0036 218.86 -68.1364 223.562 -76.1858C228.263 -84.2352 235.438 -90.8489 244.2 -95.2106C264.494 -105.034 275.876 -94.2814 292.819 -79.9229C307.331 -67.6255 306.818 -93.8956 310.346 -97.4199" stroke="#231F20"/>
</g>
<defs>
<clipPath id="clip0">
<rect width="259" height="281" fill="white"/>
</clipPath>
</defs>
</svg>
