<svg width="238" height="235" viewBox="0 0 238 235" fill="none" xmlns="http://www.w3.org/2000/svg">
<g clip-path="url(#clip0)">
<path d="M416.758 217.447C390.985 193.968 373.974 181.869 367.752 203.081C365.095 212.14 351.722 201.311 337.882 195.536C324.042 189.761 309.272 80.2358 297.001 69.0578C284.73 57.8798 262.174 45.9208 252.367 43.7488C242.56 41.5768 242.41 39.8288 221.967 23.0838C201.524 6.33882 204.647 2.01081 192.66 -8.05819C180.673 -18.1272 169.839 -14.5582 166.967 -14.5032C164.095 -14.4482 163.531 -7.45319 158.812 -6.45819C154.093 -5.46319 137.392 -20.5582 135.242 -20.9492C133.092 -21.3402 131.342 -14.2762 126.321 -14.3932C121.3 -14.5102 118.531 -27.0962 113.031 -32.7502C107.531 -38.4042 87.1638 -48.3252 108.096 -83.0762C129.028 -117.827 169.248 -71.7242 175.896 -67.4372C182.544 -63.1502 172.375 -48.5682 182.996 -41.6942C193.617 -34.8202 199.388 -45.3682 216.744 -37.9712C234.1 -30.5742 219.418 -0.829193 196.107 25.7678C172.796 52.3648 155.255 101.429 168.362 110.551C181.469 119.673 230.748 113.769 251.093 117.633C264.57 120.19 277.333 130.047 291.034 142.906C300.953 151.94 312.496 164.372 317.603 176.906C323.22 190.685 315.641 203.364 319.32 216.764C328.648 250.723 385.437 254.486 401.02 223.564C409.571 206.597 324.863 140.234 286.757 110.569C271.577 98.7538 253.657 97.6148 253.829 94.6238C255.678 62.2328 234.312 59.1358 234.312 59.1358C206.175 62.3028 204.654 79.7608 154.395 75.1558C137.576 73.6128 123.889 58.0068 119.006 60.2558C114.123 62.5048 112.295 70.2498 126.079 66.2188C139.863 62.1878 142.668 28.7638 141.82 24.9948C140.972 21.2258 118.501 25.4288 114.277 23.0148C110.053 20.6008 112.97 15.9828 106.903 16.9728C100.836 17.9628 96.8658 25.2788 86.9148 28.0158C76.9638 30.7528 65.6068 38.8408 69.2018 57.0838C67.0968 60.3838 70.6178 86.8308 97.7508 87.9718C124.884 89.1128 238.015 193.914 234.142 210.144C230.269 226.374 210.123 170.476 185.827 147.894C161.531 125.312 96.1568 116.948 66.6628 95.4138C37.1688 73.8798 65.7928 17.8138 72.9918 19.5298C80.1908 21.2458 71.8078 38.6298 69.2008 57.0838C67.2898 70.6148 5.40677 94.5268 12.4308 46.9858C19.4548 -0.555191 46.7148 -6.28719 36.0808 -39.9742C29.2648 -61.5812 4.78877 -45.1742 0.829766 -29.7442C-4.10523 -10.5082 47.8938 -43.7812 53.5718 -57.3942C59.2498 -71.0072 47.3188 -92.9642 40.5938 -98.6172" stroke="#231F20"/>
</g>
<defs>
<clipPath id="clip0">
<rect width="238" height="235" fill="white"/>
</clipPath>
</defs>
</svg>
