<svg id="Layer_1" data-name="Layer 1" xmlns="http://www.w3.org/2000/svg" xmlns:xlink="http://www.w3.org/1999/xlink" viewBox="0 0 1394.518 930.289"><defs><style>.cls-1,.cls-3,.cls-4{fill:none;}.cls-2{clip-path:url(#clip-path);}.cls-3,.cls-4{stroke:#231f20;}.cls-3{stroke-width:0.01px;}</style><clipPath id="clip-path" transform="translate(503.616 88.887)"><rect class="cls-1" width="295" height="277"/></clipPath></defs><g class="cls-2"><path class="cls-3" d="M228.546,813.11,413.808,627.848,28.435,242.475-156.827,427.737Z" transform="translate(503.616 88.887)"/><path class="cls-4" d="M-50.054,349.249s4.782,4.248,20.184,19.65c27.118,27.118,9.882,47.265-1.451,62.46-13.755,18.443-14.242,26.572-22.671,49.122-.794,2.122-1.557,4.464-.6,7.227.849,2.45,2.89,4.739,4.845,6.873A1513.263,1513.263,0,0,0,92.881,631.21c6.775,5.686,14.534,11.73,21.584,12.094,5.281.274,8.878-2.775,11.822-6.033,22.927-25.353,14.864-56.74,44.722-74.532,20.8-12.4,45.829-3.736,64.437-18.7,8-6.438,13.292-17.064,9.214-30.171-2.959-9.5-10.275-18.7-17.421-27.332-37.444-45.228-78.32-88.954-124.328-125.109-10.5-8.251-21.615-16.289-33.013-20.24-11.343-3.931-22.575-2.5-27.494,5.226-8.5,13.341-9.927,20.277-17.1,34.823-4.618,9.372-6.165,20.8.764,34.269,1.8,3.5,4.611,6.7,7.363,9.816,28.453,32.2,57.573,65.021,91.823,90.073,6.239,4.565,12.9,8.977,19.455,10.562,5.444,1.315,10.313.555,15.033-.21,13.934-2.259,28.07-4.59,39.08-11.281,4.135-2.512,7.98-6.828,5.4-12.946-1.207-2.862-3.6-5.47-5.91-7.943-25.5-27.327-51.021-54.678-77.7-80.894-11.6-11.4-23.558-22.7-36.665-31.775-3.763-2.608-8.108-5.162-11.488-4.606-1.883.307-3.157,1.554-4.367,2.767-9.774,9.8-19.471,19.622-28.664,29.989-17.245,19.447-25.26,32.679-40.078,54.319-2.945,4.3-25.957,31.99-16.718,41.232C-2.611,519.36,44.2,470.222,53.045,479.072s-37.611,64.162-23.9,68.155,53.713-38.345,66.989-25.069-47.639,54.134-33.049,59.008,62.663-11.516,82.084-4.144c22.111,8.394,69.5,51.87,82.043,49.49s29.069-88.736-9.323-89.67-36.464,28.731-6.376,36.885,65.1,8.128,85.52,33.818-4.072,84.716,10.005,98.792" transform="translate(503.616 88.887)"/><path class="cls-3" d="M-503.609,309.918-291.477,522.05.042,230.531-212.09,18.4Z" transform="translate(503.616 88.887)"/><path class="cls-4" d="M474.257,271.458c-29.392-26.74-48.792-40.52-55.887-16.362-3.03,10.317-18.281-2.015-34.064-8.593S351.679,115.19,337.684,102.459s-39.716-26.351-50.9-28.824S275.428,69.17,252.12,50.1s-19.752-24-33.423-35.467-26.025-7.4-29.3-7.341-3.918,8.029-9.3,9.163S155.669.392,153.217-.049s-4.444,7.6-10.173,7.467-8.883-14.468-15.16-20.907-29.5-17.738-5.629-57.316,69.739,12.929,77.319,17.811-4.015,21.49,8.1,29.319,18.694-4.185,38.487,4.24,3.049,42.3-23.535,72.591-46.588,86.17-31.641,96.559,71.146,3.665,94.348,8.065c15.369,2.913,29.924,14.139,45.549,28.784,11.312,10.288,24.475,24.447,30.3,38.722,6.405,15.693-2.238,30.133,1.958,45.394,10.637,38.675,75.4,42.961,93.167,7.743C466.058,259.1,369.456,183.52,326,149.734c-17.311-13.456-37.745-14.753-37.552-18.159,2.109-36.89-22.257-40.417-22.257-40.417-32.088,3.607-33.822,23.489-91.138,18.245-19.181-1.757-34.789-19.531-40.358-16.975s-7.653,11.382,8.066,6.791,18.921-42.648,17.953-46.943-26.593.494-31.41-2.255-1.49-8.008-8.409-6.881S109.448,52.6,98.1,55.717,73.8,68.045,77.9,88.822C75.5,92.575,79.515,122.7,110.458,124S270.416,244.656,266,263.14s-27.392-45.177-55.1-70.895S108.64,157,75.005,132.476s-.993-88.383,7.217-86.424-1.35,21.753-4.323,42.77c-2.179,15.41-72.751,42.643-64.743-11.5s39.1-60.672,26.972-99.038c-7.772-24.608-35.685-5.92-40.2,11.65C-5.7,11.842,53.6-26.052,60.075-41.556s-7.131-40.51-14.8-46.948" transform="translate(503.616 88.887)"/><path class="cls-3" d="M265.105,602.393l239,239L890.9,454.607l-239-239Z" transform="translate(503.616 88.887)"/><path class="cls-4" d="M385.14,722.428c16-16,27.876-15.654,35.737-17.116a94.75,94.75,0,0,1,37.78-.486c14.154,2.552,26.542,8.444,39.807,13.564,10.263,3.951,20.958,5.714,31.32,1.122a42.813,42.813,0,0,0,5.017-2.683c10.911-6.768,8.88-25.875,10.906-34.378,4.782-20.021,10-43.723,19.811-62.01,12.145-22.584,40.147-26.745,61.789-35.536,33.643-13.685,33.81-37.508,50.236-66.969,7.7-13.806,16.059-29.539,26.927-42.269,6.416-7.491,23.628-18.252,10.019-27.119-17.279-11.256-38.128,7.443-49.141,19.4-18.241,19.867-21.322,36.4-52.988,27.942C595.531,491.4,569,517.3,557.212,526.438c-32.39,25.1-59.026,53.1-79.261,88.676-2.814,4.938-32.022,65.67-37.081,63.439-6.686-2.94,19.034-48.381,20.472-53.413,1.7-5.843,2.232-11.962,2.752-18.016,3.213-36.389,12.155-67.492,26.547-101.134,7.732-18.066,34.622-37.875,37.919-46.207,2.537-6.393,6.8-17.712,4.62-27.673-2.38-10.918-11.41-13.348-6.491-25.558,3.205-8.031,10.807-5.457,15.814-4.667s7.385,11.6,9.222,14.538,2.929,9.739,3.455,12.884c.526,3.172-4.727,25.315-3.153,26.364s7.388-3.14,9.51-5.261c6.063-6.221,14.963-22.569,14.915-35.293-.045-8.61-4.045-12.609-7.166-15.809-7.488-7.7-17.328-6.118-15.74-22.131.677-6.735,5.314-9.353,8.368-8.42,15.178,4.675,28.589,12.9,30.571,16.925,1.968,3.933,14.386,15.329,8,27.538-4.869,9.327-8.053,28.273-6.149,33.949,1.05,3.146,1.194,2.635,3.5.854,2.279-1.754,7.852-34.734,10.391-40.472,10.428-23.411-30.361-55.714-3.849-72.1,5.344-3.325,13.5,4.832,15.443,9.026,1.916,4.195,7.975,11.826,12.066,15.917,10.1,10.124,7.874,35.558,12.535,48.7,2.81,7.891-13.474,35.4-17.073,41.988-3.573,6.589-1.227,7.417,4.891,4.865,41.071-17.1,35.6-82.31,64.163-110.871,5.343-5.343,10.085-6.808,17.664-1.3,15.746,11.451-6.967,45.835-11.217,58.635-1.884,5.633-2.149,19.353-5.921,23.649-3.744,4.3,34.565-26.408,45.344-54.156,5.612-14.424,13-19.608,29.657-36.266" transform="translate(503.616 88.887)"/></g></svg>