<svg id="Layer_1" data-name="Layer 1" xmlns="http://www.w3.org/2000/svg" xmlns:xlink="http://www.w3.org/1999/xlink" viewBox="0 0 387.495 388.611"><defs><style>.cls-1,.cls-3{fill:none;}.cls-2{clip-path:url(#clip-path);}.cls-3{stroke:#231f20;}</style><clipPath id="clip-path" transform="translate(72.213 -47.171)"><rect class="cls-1" width="315" height="330"/></clipPath></defs><g class="cls-2"><path class="cls-3" d="M-71.859,435.428c16-16,27.875-15.654,35.737-17.116a94.745,94.745,0,0,1,37.779-.486c14.154,2.552,26.542,8.444,39.807,13.564,10.264,3.951,20.958,5.714,31.32,1.122a42.813,42.813,0,0,0,5.017-2.683c10.912-6.768,8.881-25.875,10.906-34.378,4.783-20.021,10-43.723,19.811-62.01,12.146-22.584,40.147-26.745,61.789-35.536,33.643-13.685,33.81-37.508,50.236-66.969,7.7-13.806,16.059-29.539,26.927-42.269,6.416-7.491,23.628-18.252,10.02-27.119-17.28-11.256-38.129,7.443-49.142,19.4-18.24,19.867-21.322,36.4-52.988,27.942C138.531,204.4,112,230.3,100.212,239.438c-32.39,25.1-59.025,53.1-79.261,88.676-2.814,4.938-32.021,65.67-37.081,63.439-6.685-2.94,19.034-48.381,20.472-53.413,1.7-5.843,2.233-11.962,2.753-18.016,3.212-36.389,12.154-67.492,26.546-101.134,7.732-18.066,34.622-37.875,37.919-46.207,2.538-6.393,6.8-17.712,4.62-27.673-2.379-10.918-11.41-13.348-6.491-25.558,3.205-8.031,10.807-5.457,15.814-4.667s7.385,11.6,9.222,14.538,2.929,9.739,3.455,12.884c.527,3.172-4.726,25.315-3.153,26.364s7.389-3.14,9.51-5.261c6.063-6.221,14.963-22.569,14.915-35.293-.045-8.61-4.045-12.609-7.166-15.809-7.487-7.7-17.328-6.118-15.74-22.131.677-6.735,5.314-9.353,8.368-8.42,15.178,4.675,28.589,12.9,30.571,16.925,1.968,3.933,14.386,15.329,8,27.538-4.868,9.327-8.053,28.273-6.149,33.949,1.051,3.146,1.194,2.635,3.5.854,2.279-1.754,7.853-34.734,10.391-40.472,10.428-23.41-30.361-55.714-3.849-72.1,5.344-3.325,13.5,4.832,15.443,9.026,1.916,4.2,7.975,11.826,12.067,15.917,10.1,10.124,7.873,35.558,12.534,48.7,2.81,7.891-13.473,35.4-17.072,41.988-3.574,6.589-1.227,7.417,4.891,4.865,41.07-17.1,35.6-82.31,64.162-110.871,5.343-5.343,10.086-6.808,17.664-1.3,15.746,11.451-6.967,45.835-11.217,58.635-1.883,5.633-2.149,19.353-5.92,23.649-3.745,4.3,34.564-26.408,45.343-54.156,5.612-14.424,13-19.608,29.657-36.266" transform="translate(72.213 -47.171)"/></g></svg>