<svg id="Layer_1" data-name="Layer 1" xmlns="http://www.w3.org/2000/svg" xmlns:xlink="http://www.w3.org/1999/xlink" viewBox="0 0 924.264 815.673"><defs><style>.cls-1,.cls-3,.cls-4{fill:none;}.cls-2{clip-path:url(#clip-path);}.cls-3,.cls-4{stroke:#231f20;}.cls-3{stroke-width:0.01px;}</style><clipPath id="clip-path" transform="translate(42.21 118.397)"><rect class="cls-1" width="277" height="276"/></clipPath></defs><g class="cls-2"><path class="cls-3" d="M680.009,697.269l202.038-220.4L461.777,18.41,259.74,238.808Z" transform="translate(42.21 118.397)"/><path class="cls-4" d="M.539,221.214l-3.785,4.128" transform="translate(42.21 118.397)"/><path class="cls-4" d="M5.98,214.763c7.047-7.688,25.956-15.752,39.482-12.366,18.741,4.694,147.6,80.238,65.2,61.741-33.754-7.577-52.514-28.96-76.034-56.934C5.445,172.5-13.2,127.8-32.529,86.549c-4.1-8.76-8.007-17.852-9.068-27.143-.214-1.9-.236-4.015.962-5.163,1.13-1.083,2.96-.924,4.6-.55C-24.542,56.315-14.8,66.414-6.426,76.374c38.369,45.607,58.111,95.338,107.935,127.539,13.128,8.486,28.462,14.826,41.63,11.033,12.119-3.5,19.966-14.817,26.22-26.23s11.92-23.825,21.967-31.275,26.188-8.1,36.194,2.9c4.822,5.3,7.487,12.512,8.195,19.436,1.2,11.687-3.06,22.928-11.07,29.208-12.762,10.01-31.957,6.723-48.762.43C140.795,196.274,118.67,180.7,89.822,153.03c-13.49-12.939-26.555-26.916-35.981-43.395S38.9,73.772,41.81,56.586c2.69-15.869,22.3-36.848,15.241-54.012C50.513-13.335,27.806-19.9,14.817-19.525-1.778-19.041-3.532-5.888,3.208,10.1c18.05,42.816,47.667,117.922,99.549,113.087,14.84-1.381,26.818-11.312,36.211-22.119A473.342,473.342,0,0,1,175.5,63.333a538.8,538.8,0,0,1,50.682-41.291c6.778-4.864,47.193-23.732,43.8-35.528-1.25-4.346-6.532-5.3-10.563-5.907-20.594-3.1-38.28-24.28-40.175-46.468a49.543,49.543,0,0,1,25.662-48.017c19.684-10.413,30.724.985,47.158,16.206,14.076,13.036,13.578-14.812,17-18.548" transform="translate(42.21 118.397)"/></g></svg>