<svg id="Layer_1" data-name="Layer 1" xmlns="http://www.w3.org/2000/svg" xmlns:xlink="http://www.w3.org/1999/xlink" viewBox="0 0 362.926 368.12"><defs><style>.cls-1,.cls-3{fill:none;}.cls-2{clip-path:url(#clip-path);}.cls-3{stroke:#231f20;}</style><clipPath id="clip-path" transform="translate(81.538 -8.57)"><rect class="cls-1" width="277" height="276"/></clipPath></defs><g class="cls-2"><path class="cls-3" d="M-76.054,19.249S-71.272,23.5-55.87,38.9c27.118,27.118,9.883,47.265-1.451,62.46-13.755,18.443-14.242,26.572-22.671,49.122-.794,2.122-1.557,4.464-.6,7.227.848,2.45,2.89,4.739,4.844,6.873A1513.153,1513.153,0,0,0,66.882,301.21c6.774,5.686,14.533,11.73,21.583,12.094,5.281.274,8.878-2.775,11.822-6.033,22.927-25.353,14.864-56.74,44.722-74.532,20.8-12.4,45.829-3.736,64.437-18.7,8-6.438,13.292-17.064,9.214-30.171-2.959-9.5-10.275-18.7-17.421-27.332C163.795,111.309,122.92,67.583,76.911,31.428,66.411,23.177,55.3,15.139,43.9,11.188c-11.344-3.931-22.576-2.5-27.494,5.226C7.909,29.755,6.477,36.691-.69,51.237c-4.618,9.372-6.166,20.8.763,34.269,1.8,3.5,4.612,6.7,7.363,9.816,28.453,32.2,57.573,65.021,91.823,90.073,6.239,4.565,12.9,8.977,19.455,10.562,5.444,1.315,10.313.555,15.034-.21,13.933-2.259,28.069-4.59,39.079-11.281,4.135-2.512,7.98-6.828,5.4-12.946-1.207-2.862-3.6-5.47-5.91-7.943-25.5-27.327-51.02-54.678-77.7-80.894-11.606-11.4-23.559-22.7-36.665-31.775C54.19,48.3,49.845,45.746,46.465,46.3c-1.883.307-3.156,1.554-4.367,2.767-9.773,9.8-19.471,19.622-28.663,29.989-17.246,19.447-25.261,32.679-40.079,54.319-2.945,4.3-25.957,31.99-16.718,41.232,14.751,14.751,61.557-34.387,70.407-25.537s-37.611,64.162-23.9,68.155,53.712-38.345,66.988-25.069-47.639,54.134-33.049,59.008,62.663-11.516,82.084-4.144c22.112,8.394,69.5,51.87,82.043,49.49s29.069-88.736-9.323-89.67-36.464,28.731-6.376,36.885,65.1,8.128,85.52,33.818-4.072,84.716,10.005,98.792" transform="translate(81.538 -8.57)"/></g></svg>