<svg xmlns="http://www.w3.org/2000/svg" viewBox="0 0 198.601 153.929"><defs><style>.cls-1,.cls-2,.cls-3{fill:none;stroke:#efd787;stroke-linecap:round;}.cls-1{stroke-miterlimit:10;}.cls-1,.cls-3{stroke-width:2px;}.cls-2,.cls-3{stroke-linejoin:round;}.cls-2{stroke-width:2.174px;}</style></defs><g id="Layer_2" data-name="Layer 2"><g id="Layer_1-2" data-name="Layer 1"><path class="cls-1" d="M99.058,68.885C99.058,34.4,132.92,7.733,197,7.733"/><path class="cls-1" d="M99,69.617C99,35.13,65.08,8.125,1,8.125"/><line class="cls-1" x1="91.61" y1="85.352" x2="98.942" y2="74.177"/><line class="cls-1" x1="106.274" y1="85.352" x2="98.942" y2="74.177"/><line class="cls-1" x1="91.639" y1="115.408" x2="98.971" y2="104.233"/><line class="cls-1" x1="106.303" y1="115.408" x2="98.971" y2="104.233"/><line class="cls-2" x1="98.942" y1="68.842" x2="98.942" y2="152.842"/><line class="cls-3" x1="106.212" y1="34.399" x2="106.69" y2="43.779"/><line class="cls-3" x1="116.304" y1="43.242" x2="106.942" y2="44"/><line class="cls-3" x1="168.69" y1="16.531" x2="174.406" y2="9.078"/><line class="cls-3" x1="166.736" y1="3.256" x2="174.357" y2="8.747"/><line class="cls-3" x1="166.638" y1="3.314" x2="160.89" y2="10.743"/><line class="cls-3" x1="168.535" y1="16.598" x2="160.938" y2="11.075"/><line class="cls-3" x1="147.309" y1="21.579" x2="151.522" y2="13.184"/><line class="cls-3" x1="142.895" y1="8.907" x2="151.412" y2="12.868"/><line class="cls-3" x1="142.81" y1="8.983" x2="138.561" y2="17.359"/><line class="cls-3" x1="147.169" y1="21.673" x2="138.669" y2="17.676"/><line class="cls-3" x1="129.172" y1="30.805" x2="131.409" y2="21.683"/><line class="cls-3" x1="122.046" y1="19.436" x2="131.231" y2="21.399"/><line class="cls-3" x1="121.979" y1="19.528" x2="119.703" y2="28.641"/><line class="cls-3" x1="129.056" y1="30.928" x2="119.88" y2="28.925"/><line class="cls-3" x1="116.378" y1="43.091" x2="115.86" y2="33.712"/><line class="cls-3" x1="106.249" y1="34.291" x2="115.608" y2="33.493"/><line class="cls-3" x1="190.484" y1="1.379" x2="183.774" y2="7.951"/><line class="cls-3" x1="190.546" y1="14.797" x2="183.776" y2="8.286"/><line class="cls-3" x1="190.919" y1="14.873" x2="197.601" y2="8.272"/><line class="cls-3" x1="190.8" y1="1.456" x2="197.598" y2="7.937"/><line class="cls-3" x1="92.389" y1="34.02" x2="91.911" y2="43.4"/><line class="cls-3" x1="82.297" y1="42.863" x2="91.659" y2="43.621"/><line class="cls-3" x1="29.911" y1="16.152" x2="24.195" y2="8.699"/><line class="cls-3" x1="31.864" y1="2.877" x2="24.243" y2="8.368"/><line class="cls-3" x1="31.962" y1="2.935" x2="37.71" y2="10.364"/><line class="cls-3" x1="30.066" y1="16.218" x2="37.663" y2="10.695"/><line class="cls-3" x1="51.291" y1="21.199" x2="47.078" y2="12.805"/><line class="cls-3" x1="55.706" y1="8.528" x2="47.188" y2="12.488"/><line class="cls-3" x1="55.791" y1="8.604" x2="60.04" y2="16.98"/><line class="cls-3" x1="51.431" y1="21.294" x2="59.931" y2="17.297"/><line class="cls-3" x1="69.429" y1="30.426" x2="67.192" y2="21.304"/><line class="cls-3" x1="76.555" y1="19.057" x2="67.37" y2="21.02"/><line class="cls-3" x1="76.621" y1="19.149" x2="78.898" y2="28.262"/><line class="cls-3" x1="69.544" y1="30.549" x2="78.721" y2="28.546"/><line class="cls-3" x1="82.222" y1="42.712" x2="82.74" y2="33.333"/><line class="cls-3" x1="92.352" y1="33.912" x2="82.993" y2="33.114"/><line class="cls-3" x1="8.116" y1="1" x2="14.827" y2="7.572"/><line class="cls-3" x1="8.055" y1="14.418" x2="14.825" y2="7.907"/><line class="cls-3" x1="7.682" y1="14.494" x2="1" y2="7.893"/><line class="cls-3" x1="7.801" y1="1.077" x2="1.003" y2="7.558"/><line class="cls-1" x1="91.668" y1="145.463" x2="99" y2="134.288"/><line class="cls-1" x1="106.332" y1="145.463" x2="99" y2="134.288"/></g></g></svg>