<svg xmlns="http://www.w3.org/2000/svg" viewBox="0 0 191.325 177.652"><defs><style>.cls-1,.cls-2,.cls-3,.cls-4{fill:none;stroke:#efd787;stroke-linecap:round;}.cls-1,.cls-4{stroke-miterlimit:10;}.cls-1{stroke-width:2px;}.cls-2,.cls-3{stroke-linejoin:round;}.cls-2{stroke-width:2.465px;}.cls-3{stroke-width:1.607px;}.cls-4{stroke-width:1.984px;}</style></defs><g id="Layer_2" data-name="Layer 2"><g id="Layer_1-2" data-name="Layer 1"><line class="cls-1" x1="88.368" y1="84.589" x2="95.7" y2="73.414"/><line class="cls-1" x1="103.032" y1="84.589" x2="95.7" y2="73.414"/><line class="cls-1" x1="88.383" y1="127.291" x2="95.715" y2="116.116"/><line class="cls-1" x1="103.047" y1="127.291" x2="95.715" y2="116.116"/><line class="cls-2" x1="95.686" y1="68.419" x2="95.686" y2="176.419"/><line class="cls-3" x1="6.712" y1="0.804" x2="12.105" y2="6.086"/><line class="cls-3" x1="6.662" y1="11.588" x2="12.104" y2="6.355"/><line class="cls-3" x1="6.362" y1="11.649" x2="0.992" y2="6.344"/><line class="cls-3" x1="6.458" y1="0.865" x2="0.994" y2="6.075"/><line class="cls-1" x1="88.354" y1="169.993" x2="95.686" y2="158.818"/><line class="cls-1" x1="103.017" y1="169.993" x2="95.686" y2="158.818"/><path class="cls-4" d="M95.936,69.049c0-35.233,32.672-62.823,94.4-62.823"/><path class="cls-4" d="M95.39,69.049c0-35.233-32.673-62.823-94.4-62.823"/><line class="cls-3" x1="21.798" y1="2.405" x2="26.521" y2="8.293"/><line class="cls-3" x1="20.461" y1="13.106" x2="26.488" y2="8.56"/><line class="cls-3" x1="20.156" y1="13.131" x2="15.457" y2="7.222"/><line class="cls-3" x1="21.539" y1="2.436" x2="15.492" y2="6.955"/><line class="cls-3" x1="37.671" y1="4.963" x2="41.576" y2="11.424"/><line class="cls-3" x1="34.932" y1="15.394" x2="41.507" y2="11.684"/><line class="cls-3" x1="34.627" y1="15.378" x2="30.75" y2="8.901"/><line class="cls-3" x1="37.41" y1="4.959" x2="30.82" y2="8.641"/><line class="cls-3" x1="53.317" y1="9.026" x2="56.551" y2="15.848"/><line class="cls-3" x1="49.542" y1="19.129" x2="56.457" y2="16.1"/><line class="cls-3" x1="49.24" y1="19.082" x2="46.035" y2="12.247"/><line class="cls-3" x1="53.058" y1="8.996" x2="46.13" y2="11.996"/><line class="cls-3" x1="67.668" y1="16.344" x2="69.52" y2="23.663"/><line class="cls-3" x1="62.008" y1="25.524" x2="69.378" y2="23.892"/><line class="cls-3" x1="61.72" y1="25.42" x2="59.899" y2="18.094"/><line class="cls-3" x1="67.419" y1="16.265" x2="60.042" y2="17.865"/><line class="cls-3" x1="80.146" y1="24.83" x2="80.685" y2="32.36"/><line class="cls-3" x1="72.964" y1="32.874" x2="80.506" y2="32.56"/><line class="cls-3" x1="72.698" y1="32.721" x2="72.192" y2="25.189"/><line class="cls-3" x1="79.916" y1="24.708" x2="72.372" y2="24.989"/><line class="cls-3" x1="91.413" y1="37.843" x2="90.246" y2="45.301"/><line class="cls-3" x1="82.606" y1="44.066" x2="90.026" y2="45.456"/><line class="cls-3" x1="82.382" y1="43.858" x2="83.582" y2="36.405"/><line class="cls-3" x1="91.216" y1="37.672" x2="83.802" y2="36.25"/><line class="cls-3" x1="184.653" y1="0.996" x2="179.26" y2="6.279"/><line class="cls-3" x1="184.702" y1="11.781" x2="179.261" y2="6.548"/><line class="cls-3" x1="185.002" y1="11.842" x2="190.372" y2="6.537"/><line class="cls-3" x1="184.906" y1="1.058" x2="190.37" y2="6.267"/><line class="cls-3" x1="160.865" y1="3.243" x2="156.141" y2="9.132"/><line class="cls-3" x1="162.202" y1="13.945" x2="156.174" y2="9.399"/><line class="cls-3" x1="162.506" y1="13.97" x2="167.205" y2="8.061"/><line class="cls-3" x1="161.124" y1="3.274" x2="167.17" y2="7.794"/><line class="cls-3" x1="146.84" y1="5.812" x2="142.936" y2="12.273"/><line class="cls-3" x1="149.579" y1="16.243" x2="143.004" y2="12.534"/><line class="cls-3" x1="149.885" y1="16.228" x2="153.761" y2="9.75"/><line class="cls-3" x1="147.101" y1="5.809" x2="153.692" y2="9.49"/><line class="cls-3" x1="132.706" y1="11.179" x2="129.472" y2="18"/><line class="cls-3" x1="136.481" y1="21.281" x2="129.566" y2="18.252"/><line class="cls-3" x1="136.784" y1="21.235" x2="139.989" y2="14.4"/><line class="cls-3" x1="132.966" y1="11.149" x2="139.893" y2="14.148"/><line class="cls-3" x1="119.813" y1="17.886" x2="117.961" y2="25.205"/><line class="cls-3" x1="125.473" y1="27.066" x2="118.102" y2="25.434"/><line class="cls-3" x1="125.76" y1="26.962" x2="127.581" y2="19.636"/><line class="cls-3" x1="120.061" y1="17.807" x2="127.439" y2="19.407"/><line class="cls-3" x1="109.218" y1="27.022" x2="108.679" y2="34.552"/><line class="cls-3" x1="116.401" y1="35.067" x2="108.858" y2="34.753"/><line class="cls-3" x1="116.666" y1="34.914" x2="117.173" y2="27.382"/><line class="cls-3" x1="109.449" y1="26.901" x2="116.993" y2="27.182"/><line class="cls-3" x1="99.951" y1="38.035" x2="101.118" y2="45.494"/><line class="cls-3" x1="108.758" y1="44.259" x2="101.338" y2="45.649"/><line class="cls-3" x1="108.982" y1="44.051" x2="107.783" y2="36.597"/><line class="cls-3" x1="100.148" y1="37.865" x2="107.562" y2="36.443"/><line class="cls-3" x1="172.565" y1="1.555" x2="167.688" y2="7.318"/><line class="cls-3" x1="173.621" y1="12.288" x2="167.715" y2="7.585"/><line class="cls-3" x1="173.925" y1="12.321" x2="178.777" y2="6.537"/><line class="cls-3" x1="172.823" y1="1.593" x2="178.749" y2="6.269"/></g></g></svg>