<svg xmlns="http://www.w3.org/2000/svg" viewBox="0 0 192.042 177.099"><defs><style>.cls-1,.cls-2,.cls-3,.cls-4,.cls-5{fill:none;stroke:#efd787;stroke-linecap:round;}.cls-1,.cls-3,.cls-4{stroke-miterlimit:10;}.cls-1{stroke-width:2px;}.cls-2,.cls-5{stroke-linejoin:round;}.cls-2{stroke-width:2.431px;}.cls-3{stroke-width:1.999px;}.cls-4{stroke-width:1.999px;}.cls-5{stroke-width:1.607px;}</style></defs><g id="Layer_2" data-name="Layer 2"><g id="Layer_1-2" data-name="Layer 1"><line class="cls-1" x1="88.704" y1="85.553" x2="96.036" y2="74.378"/><line class="cls-1" x1="103.368" y1="85.553" x2="96.036" y2="74.378"/><line class="cls-1" x1="88.719" y1="128.255" x2="96.05" y2="117.08"/><line class="cls-1" x1="103.382" y1="128.255" x2="96.05" y2="117.08"/><line class="cls-2" x1="96.021" y1="70.884" x2="96.021" y2="175.884"/><line class="cls-1" x1="88.689" y1="170.957" x2="96.021" y2="159.782"/><line class="cls-1" x1="103.353" y1="170.957" x2="96.021" y2="159.782"/><path class="cls-3" d="M95.943,70.078c0-35.5,32.916-63.291,95.1-63.291"/><path class="cls-4" d="M96.1,70.078C96.1,34.582,63.184,6.787,1,6.787"/><line class="cls-5" x1="7.497" y1="0.804" x2="12.891" y2="6.086"/><line class="cls-5" x1="7.448" y1="11.588" x2="12.889" y2="6.355"/><line class="cls-5" x1="7.148" y1="11.649" x2="1.778" y2="6.344"/><line class="cls-5" x1="7.244" y1="0.865" x2="1.78" y2="6.075"/><line class="cls-5" x1="22.583" y1="2.405" x2="27.307" y2="8.293"/><line class="cls-5" x1="21.247" y1="13.106" x2="27.274" y2="8.56"/><line class="cls-5" x1="20.942" y1="13.131" x2="16.243" y2="7.222"/><line class="cls-5" x1="22.324" y1="2.436" x2="16.278" y2="6.955"/><line class="cls-5" x1="38.457" y1="4.963" x2="42.362" y2="11.424"/><line class="cls-5" x1="35.718" y1="15.394" x2="42.293" y2="11.684"/><line class="cls-5" x1="35.413" y1="15.378" x2="31.536" y2="8.901"/><line class="cls-5" x1="38.196" y1="4.959" x2="31.605" y2="8.641"/><line class="cls-5" x1="54.103" y1="9.026" x2="57.337" y2="15.848"/><line class="cls-5" x1="50.328" y1="19.129" x2="57.243" y2="16.1"/><line class="cls-5" x1="50.026" y1="19.082" x2="46.821" y2="12.247"/><line class="cls-5" x1="53.844" y1="8.996" x2="46.916" y2="11.996"/><line class="cls-5" x1="68.454" y1="16.344" x2="70.306" y2="23.663"/><line class="cls-5" x1="62.794" y1="25.524" x2="70.164" y2="23.892"/><line class="cls-5" x1="62.506" y1="25.42" x2="60.685" y2="18.094"/><line class="cls-5" x1="68.205" y1="16.265" x2="60.828" y2="17.865"/><line class="cls-5" x1="80.932" y1="24.83" x2="81.471" y2="32.36"/><line class="cls-5" x1="73.749" y1="32.874" x2="81.292" y2="32.56"/><line class="cls-5" x1="73.484" y1="32.721" x2="72.978" y2="25.189"/><line class="cls-5" x1="80.702" y1="24.708" x2="73.158" y2="24.989"/><line class="cls-5" x1="92.199" y1="37.843" x2="91.032" y2="45.301"/><line class="cls-5" x1="83.392" y1="44.066" x2="90.812" y2="45.456"/><line class="cls-5" x1="83.168" y1="43.858" x2="84.368" y2="36.405"/><line class="cls-5" x1="92.002" y1="37.672" x2="84.588" y2="36.25"/><line class="cls-5" x1="185.439" y1="0.996" x2="180.046" y2="6.279"/><line class="cls-5" x1="185.488" y1="11.781" x2="180.047" y2="6.548"/><line class="cls-5" x1="185.788" y1="11.842" x2="191.158" y2="6.537"/><line class="cls-5" x1="185.692" y1="1.058" x2="191.156" y2="6.267"/><line class="cls-5" x1="161.651" y1="3.243" x2="156.927" y2="9.132"/><line class="cls-5" x1="162.987" y1="13.945" x2="156.96" y2="9.399"/><line class="cls-5" x1="163.292" y1="13.97" x2="167.991" y2="8.061"/><line class="cls-5" x1="161.91" y1="3.274" x2="167.956" y2="7.794"/><line class="cls-5" x1="147.626" y1="5.812" x2="143.722" y2="12.273"/><line class="cls-5" x1="150.365" y1="16.243" x2="143.79" y2="12.534"/><line class="cls-5" x1="150.671" y1="16.228" x2="154.547" y2="9.75"/><line class="cls-5" x1="147.887" y1="5.809" x2="154.478" y2="9.49"/><line class="cls-5" x1="133.492" y1="11.179" x2="130.258" y2="18"/><line class="cls-5" x1="137.267" y1="21.281" x2="130.352" y2="18.252"/><line class="cls-5" x1="137.57" y1="21.235" x2="140.775" y2="14.4"/><line class="cls-5" x1="133.751" y1="11.149" x2="140.679" y2="14.148"/><line class="cls-5" x1="120.599" y1="17.886" x2="118.747" y2="25.205"/><line class="cls-5" x1="126.258" y1="27.066" x2="118.888" y2="25.434"/><line class="cls-5" x1="126.546" y1="26.962" x2="128.367" y2="19.636"/><line class="cls-5" x1="120.847" y1="17.807" x2="128.225" y2="19.407"/><line class="cls-5" x1="110.004" y1="27.022" x2="109.465" y2="34.552"/><line class="cls-5" x1="117.187" y1="35.067" x2="109.644" y2="34.753"/><line class="cls-5" x1="117.452" y1="34.914" x2="117.959" y2="27.382"/><line class="cls-5" x1="110.235" y1="26.901" x2="117.779" y2="27.182"/><line class="cls-5" x1="100.737" y1="38.035" x2="101.904" y2="45.494"/><line class="cls-5" x1="109.544" y1="44.259" x2="102.124" y2="45.649"/><line class="cls-5" x1="109.768" y1="44.051" x2="108.569" y2="36.597"/><line class="cls-5" x1="100.934" y1="37.865" x2="108.348" y2="36.443"/><line class="cls-5" x1="173.351" y1="1.555" x2="168.474" y2="7.318"/><line class="cls-5" x1="174.406" y1="12.288" x2="168.501" y2="7.585"/><line class="cls-5" x1="174.711" y1="12.321" x2="179.563" y2="6.537"/><line class="cls-5" x1="173.609" y1="1.593" x2="179.535" y2="6.269"/></g></g></svg>