<svg xmlns="http://www.w3.org/2000/svg" viewBox="0 0 210.758 142.947"><defs><style>.cls-1,.cls-2,.cls-3,.cls-4,.cls-5{fill:none;stroke:#efd787;}.cls-1,.cls-2,.cls-5{stroke-linecap:round;}.cls-1,.cls-3,.cls-4{stroke-miterlimit:10;}.cls-1,.cls-2{stroke-width:2px;}.cls-2,.cls-5{stroke-linejoin:round;}.cls-3{stroke-width:2.032px;}.cls-4{stroke-width:2.032px;}.cls-5{stroke-width:1.985px;}</style></defs><g id="Layer_2" data-name="Layer 2"><g id="Layer_1-2" data-name="Layer 1"><line class="cls-1" x1="97.418" y1="89.345" x2="104.75" y2="78.17"/><line class="cls-1" x1="112.082" y1="89.345" x2="104.75" y2="78.17"/><line class="cls-1" x1="97.418" y1="122.124" x2="104.75" y2="110.949"/><line class="cls-1" x1="112.082" y1="122.124" x2="104.75" y2="110.949"/><line class="cls-2" x1="180.648" y1="16.343" x2="186.364" y2="8.889"/><line class="cls-2" x1="178.694" y1="3.068" x2="186.315" y2="8.558"/><line class="cls-2" x1="178.596" y1="3.126" x2="172.848" y2="10.554"/><line class="cls-2" x1="180.493" y1="16.409" x2="172.895" y2="10.886"/><line class="cls-2" x1="157.05" y1="22.533" x2="161.043" y2="14.032"/><line class="cls-2" x1="152.308" y1="9.981" x2="160.925" y2="13.718"/><line class="cls-2" x1="152.225" y1="10.058" x2="148.195" y2="18.543"/><line class="cls-2" x1="156.913" y1="22.631" x2="148.312" y2="18.856"/><line class="cls-2" x1="136.591" y1="32.779" x2="138.497" y2="23.582"/><line class="cls-2" x1="129.059" y1="21.675" x2="138.309" y2="23.305"/><line class="cls-2" x1="128.996" y1="21.77" x2="127.051" y2="30.959"/><line class="cls-2" x1="136.481" y1="32.906" x2="127.237" y2="31.237"/><line class="cls-2" x1="120.405" y1="46.07" x2="118.655" y2="36.842"/><line class="cls-2" x1="109.203" y1="38.684" x2="118.375" y2="36.658"/><line class="cls-2" x1="109.181" y1="38.795" x2="110.892" y2="48.031"/><line class="cls-2" x1="120.351" y1="46.23" x2="111.171" y2="48.216"/><line class="cls-2" x1="202.22" y1="1" x2="195.939" y2="7.984"/><line class="cls-2" x1="203.13" y1="14.387" x2="195.962" y2="8.318"/><line class="cls-2" x1="203.507" y1="14.44" x2="209.758" y2="7.429"/><line class="cls-2" x1="202.54" y1="1.056" x2="209.734" y2="7.095"/><path class="cls-3" d="M104.357,72.414c0-35.6,40.945-64.61,105.026-64.61"/><path class="cls-4" d="M104.357,72.414C104.357,36.818,64.08,8.223,0,8.223"/><line class="cls-5" x1="104.357" y1="71.954" x2="104.357" y2="141.954"/><line class="cls-2" x1="88.978" y1="47.207" x2="90.728" y2="37.979"/><line class="cls-2" x1="100.179" y1="39.82" x2="91.008" y2="37.795"/><line class="cls-2" x1="100.202" y1="39.932" x2="98.491" y2="49.168"/><line class="cls-2" x1="89.032" y1="47.367" x2="98.212" y2="49.353"/><line class="cls-2" x1="38.526" y1="18.69" x2="33.229" y2="10.934"/><line class="cls-2" x1="41.208" y1="5.543" x2="33.296" y2="10.605"/><line class="cls-2" x1="41.302" y1="5.606" x2="46.633" y2="13.34"/><line class="cls-2" x1="38.677" y1="18.765" x2="46.567" y2="13.668"/><line class="cls-2" x1="65.726" y1="28.615" x2="62.914" y2="19.653"/><line class="cls-2" x1="72.115" y1="16.815" x2="63.073" y2="19.359"/><line class="cls-2" x1="72.187" y1="16.903" x2="75.038" y2="25.853"/><line class="cls-2" x1="65.849" y1="28.73" x2="74.88" y2="26.148"/><line class="cls-2" x1="8.705" y1="1.801" x2="14.986" y2="8.784"/><line class="cls-2" x1="7.794" y1="15.188" x2="14.963" y2="9.118"/><line class="cls-2" x1="7.417" y1="15.24" x2="1.166" y2="8.23"/><line class="cls-2" x1="8.385" y1="1.857" x2="1.191" y2="7.896"/></g></g></svg>