<svg xmlns="http://www.w3.org/2000/svg" viewBox="0 0 45.465 105.333"><defs><style>.cls-1{fill:none;stroke:#bbb;stroke-linecap:round;stroke-linejoin:round;stroke-width:2px;}</style></defs><g id="Layer_2" data-name="Layer 2"><g id="Layer_4" data-name="Layer 4"><path class="cls-1" d="M23.112,102.657c-.054-15.17-.351-13.013-.351-29.428,0-11.536-8.326-2.2-17.647-16.772-8.5-13.28-3.5-37.662,11.926-40.924A22.837,22.837,0,0,1,44.107,33.152c2.088,9.872-5.222,24.036-15.094,26.124-7.9,1.67-17.087-6.869-18.757-14.766-1.336-6.318,5.136-13.5,11.454-14.838A9.354,9.354,0,0,1,32.8,36.888a7.484,7.484,0,0,1-5.774,8.87,5.986,5.986,0,0,1-7.095-4.619C19.381,38.551,19.312,8.915,19.45,1"/><polyline class="cls-1" points="16.835 99.232 22.672 104.333 22.793 104.333 28.63 99.232"/></g></g></svg>