<svg xmlns="http://www.w3.org/2000/svg" viewBox="0 0 86.616 102.259"><defs><style>.cls-1{fill:none;stroke:#bbb;stroke-linecap:round;stroke-linejoin:round;stroke-width:2px;}</style></defs><g id="Layer_2" data-name="Layer 2"><g id="Layer_4" data-name="Layer 4"><path class="cls-1" d="M26.986,1S4.1,13.145,7.849,18.42c6.864,9.667,35.078-19,45.5-13.356,7,3.791,2.121,35.442-4.4,40.01C35.367,54.6,10.1,18.305,2.929,34.59-13.281,71.413,77.782,13.9,84.86,25.806,94.59,42.176,7.1,81.233,12.632,66.048c6.908-18.955,65.5,2.4,35.515,6.888-15.239,2.279-8.178,11.71-3.029,17.357,2.547,2.794,1.455,10.106,1.455,10.106"/><polyline class="cls-1" points="41.038 96.472 46.515 101.259 46.63 101.259 52.107 96.472"/></g></g></svg>